<mxfile host="app.diagrams.net" modified="2023-04-28T03:56:16.301Z" agent="Mozilla/5.0 (Windows NT 10.0; Win64; x64) AppleWebKit/537.36 (KHTML, like Gecko) Chrome/112.0.0.0 Safari/537.36 Edg/112.0.1722.58" etag="ICMEH85X2ubH3qTtPhbB" version="21.2.3" type="github">
  <diagram name="第 1 页" id="yz5r7PwbdmtFwEHd0np4">
    <mxGraphModel dx="1148" dy="663" grid="1" gridSize="10" guides="1" tooltips="1" connect="1" arrows="1" fold="1" page="1" pageScale="1" pageWidth="1169" pageHeight="827" math="0" shadow="0">
      <root>
        <mxCell id="0" />
        <mxCell id="1" parent="0" />
        <mxCell id="V4xTXPFlkwKbt28tay-m-1" value="&lt;h1&gt;应用使用非流水线+docker容器&lt;/h1&gt;" style="text;html=1;strokeColor=none;fillColor=none;spacing=5;spacingTop=-20;whiteSpace=wrap;overflow=hidden;rounded=0;" vertex="1" parent="1">
          <mxGeometry x="30" y="160" width="190" height="110" as="geometry" />
        </mxCell>
        <mxCell id="V4xTXPFlkwKbt28tay-m-2" value="" style="edgeStyle=orthogonalEdgeStyle;rounded=0;orthogonalLoop=1;jettySize=auto;html=1;" edge="1" parent="1" source="V4xTXPFlkwKbt28tay-m-3" target="V4xTXPFlkwKbt28tay-m-42">
          <mxGeometry relative="1" as="geometry" />
        </mxCell>
        <mxCell id="V4xTXPFlkwKbt28tay-m-3" value="Git/SVN" style="rounded=0;whiteSpace=wrap;html=1;" vertex="1" parent="1">
          <mxGeometry x="60" y="280" width="110" height="50" as="geometry" />
        </mxCell>
        <mxCell id="V4xTXPFlkwKbt28tay-m-4" value="提交&lt;br&gt;代码" style="text;html=1;align=center;verticalAlign=middle;resizable=0;points=[];autosize=1;strokeColor=none;fillColor=none;" vertex="1" parent="1">
          <mxGeometry x="70" y="379" width="50" height="40" as="geometry" />
        </mxCell>
        <mxCell id="V4xTXPFlkwKbt28tay-m-5" style="edgeStyle=orthogonalEdgeStyle;rounded=0;orthogonalLoop=1;jettySize=auto;html=1;entryX=0.5;entryY=1;entryDx=0;entryDy=0;" edge="1" parent="1" source="V4xTXPFlkwKbt28tay-m-6" target="V4xTXPFlkwKbt28tay-m-3">
          <mxGeometry relative="1" as="geometry" />
        </mxCell>
        <mxCell id="V4xTXPFlkwKbt28tay-m-6" value="开发人员" style="shape=umlActor;verticalLabelPosition=bottom;verticalAlign=top;html=1;outlineConnect=0;" vertex="1" parent="1">
          <mxGeometry x="100" y="450" width="30" height="60" as="geometry" />
        </mxCell>
        <mxCell id="V4xTXPFlkwKbt28tay-m-7" style="edgeStyle=orthogonalEdgeStyle;rounded=0;orthogonalLoop=1;jettySize=auto;html=1;exitX=1;exitY=0.5;exitDx=0;exitDy=0;strokeWidth=1;entryX=0;entryY=0.5;entryDx=0;entryDy=0;" edge="1" parent="1" source="V4xTXPFlkwKbt28tay-m-9" target="V4xTXPFlkwKbt28tay-m-12">
          <mxGeometry relative="1" as="geometry">
            <mxPoint x="485" y="305" as="targetPoint" />
          </mxGeometry>
        </mxCell>
        <mxCell id="V4xTXPFlkwKbt28tay-m-8" style="edgeStyle=orthogonalEdgeStyle;rounded=0;orthogonalLoop=1;jettySize=auto;html=1;entryX=0.5;entryY=1;entryDx=0;entryDy=0;exitX=0.5;exitY=0;exitDx=0;exitDy=0;exitPerimeter=0;" edge="1" parent="1" source="V4xTXPFlkwKbt28tay-m-18" target="V4xTXPFlkwKbt28tay-m-9">
          <mxGeometry relative="1" as="geometry">
            <mxPoint x="365" y="385" as="sourcePoint" />
            <mxPoint x="355" y="440" as="targetPoint" />
          </mxGeometry>
        </mxCell>
        <mxCell id="V4xTXPFlkwKbt28tay-m-9" value="编译" style="rounded=0;whiteSpace=wrap;html=1;" vertex="1" parent="1">
          <mxGeometry x="325" y="280" width="60" height="50" as="geometry" />
        </mxCell>
        <mxCell id="V4xTXPFlkwKbt28tay-m-10" value="" style="edgeStyle=orthogonalEdgeStyle;rounded=0;orthogonalLoop=1;jettySize=auto;html=1;exitX=1;exitY=0.5;exitDx=0;exitDy=0;" edge="1" parent="1" source="V4xTXPFlkwKbt28tay-m-12" target="V4xTXPFlkwKbt28tay-m-21">
          <mxGeometry relative="1" as="geometry">
            <mxPoint x="650" y="300" as="sourcePoint" />
          </mxGeometry>
        </mxCell>
        <mxCell id="V4xTXPFlkwKbt28tay-m-11" style="edgeStyle=orthogonalEdgeStyle;rounded=0;orthogonalLoop=1;jettySize=auto;html=1;entryX=0.625;entryY=0.2;entryDx=0;entryDy=0;entryPerimeter=0;" edge="1" parent="1" source="V4xTXPFlkwKbt28tay-m-12" target="V4xTXPFlkwKbt28tay-m-22">
          <mxGeometry relative="1" as="geometry">
            <Array as="points">
              <mxPoint x="520" y="430" />
              <mxPoint x="559" y="430" />
            </Array>
          </mxGeometry>
        </mxCell>
        <mxCell id="V4xTXPFlkwKbt28tay-m-12" value="部署" style="rounded=0;whiteSpace=wrap;html=1;" vertex="1" parent="1">
          <mxGeometry x="490" y="280" width="60" height="50" as="geometry" />
        </mxCell>
        <mxCell id="V4xTXPFlkwKbt28tay-m-18" value="&lt;br&gt;&lt;br&gt;docker镜像仓库&lt;br&gt;" style="strokeWidth=1;html=1;shape=mxgraph.flowchart.database;whiteSpace=wrap;" vertex="1" parent="1">
          <mxGeometry x="290" y="440" width="130" height="130" as="geometry" />
        </mxCell>
        <mxCell id="V4xTXPFlkwKbt28tay-m-19" value="拉取镜像&lt;br&gt;构建应用" style="text;align=center;verticalAlign=middle;resizable=0;points=[];autosize=1;strokeColor=none;fillColor=none;html=1;" vertex="1" parent="1">
          <mxGeometry x="290" y="370" width="70" height="40" as="geometry" />
        </mxCell>
        <mxCell id="V4xTXPFlkwKbt28tay-m-20" style="edgeStyle=orthogonalEdgeStyle;rounded=0;orthogonalLoop=1;jettySize=auto;html=1;entryX=0.497;entryY=0.09;entryDx=0;entryDy=0;entryPerimeter=0;" edge="1" parent="1" source="V4xTXPFlkwKbt28tay-m-21" target="V4xTXPFlkwKbt28tay-m-25">
          <mxGeometry relative="1" as="geometry">
            <mxPoint x="700" y="440" as="targetPoint" />
            <Array as="points" />
          </mxGeometry>
        </mxCell>
        <mxCell id="V4xTXPFlkwKbt28tay-m-21" value="测试" style="whiteSpace=wrap;html=1;" vertex="1" parent="1">
          <mxGeometry x="680" y="280" width="60" height="50" as="geometry" />
        </mxCell>
        <mxCell id="V4xTXPFlkwKbt28tay-m-22" value="多种部署环境" style="ellipse;shape=cloud;whiteSpace=wrap;html=1;align=center;" vertex="1" parent="1">
          <mxGeometry x="440" y="472.5" width="190" height="127.5" as="geometry" />
        </mxCell>
        <mxCell id="V4xTXPFlkwKbt28tay-m-23" value="部署" style="text;html=1;align=center;verticalAlign=middle;resizable=0;points=[];autosize=1;strokeColor=none;fillColor=none;" vertex="1" parent="1">
          <mxGeometry x="520" y="399" width="50" height="30" as="geometry" />
        </mxCell>
        <mxCell id="V4xTXPFlkwKbt28tay-m-45" style="edgeStyle=orthogonalEdgeStyle;rounded=0;orthogonalLoop=1;jettySize=auto;html=1;exitX=0.55;exitY=0.95;exitDx=0;exitDy=0;exitPerimeter=0;entryX=0.631;entryY=-0.01;entryDx=0;entryDy=0;entryPerimeter=0;" edge="1" parent="1" source="V4xTXPFlkwKbt28tay-m-25" target="V4xTXPFlkwKbt28tay-m-39">
          <mxGeometry relative="1" as="geometry" />
        </mxCell>
        <mxCell id="V4xTXPFlkwKbt28tay-m-25" value="IAST工具" style="ellipse;shape=cloud;whiteSpace=wrap;html=1;strokeColor=#009900;" vertex="1" parent="1">
          <mxGeometry x="630" y="480" width="160" height="105" as="geometry" />
        </mxCell>
        <mxCell id="V4xTXPFlkwKbt28tay-m-27" value="安全&lt;br&gt;测试" style="text;html=1;align=center;verticalAlign=middle;resizable=0;points=[];autosize=1;strokeColor=none;fillColor=none;" vertex="1" parent="1">
          <mxGeometry x="700" y="374" width="50" height="40" as="geometry" />
        </mxCell>
        <mxCell id="V4xTXPFlkwKbt28tay-m-28" value="上线" style="whiteSpace=wrap;html=1;" vertex="1" parent="1">
          <mxGeometry x="960" y="280" width="80" height="50" as="geometry" />
        </mxCell>
        <mxCell id="V4xTXPFlkwKbt28tay-m-29" style="edgeStyle=orthogonalEdgeStyle;rounded=0;orthogonalLoop=1;jettySize=auto;html=1;exitX=0.5;exitY=0;exitDx=0;exitDy=0;entryX=0.5;entryY=1;entryDx=0;entryDy=0;" edge="1" parent="1" source="V4xTXPFlkwKbt28tay-m-31" target="V4xTXPFlkwKbt28tay-m-28">
          <mxGeometry relative="1" as="geometry" />
        </mxCell>
        <mxCell id="V4xTXPFlkwKbt28tay-m-30" style="edgeStyle=orthogonalEdgeStyle;rounded=0;orthogonalLoop=1;jettySize=auto;html=1;entryX=1.007;entryY=0.577;entryDx=0;entryDy=0;entryPerimeter=0;exitX=1;exitY=0.5;exitDx=0;exitDy=0;" edge="1" parent="1" source="V4xTXPFlkwKbt28tay-m-31" target="V4xTXPFlkwKbt28tay-m-35">
          <mxGeometry relative="1" as="geometry" />
        </mxCell>
        <mxCell id="V4xTXPFlkwKbt28tay-m-31" value="漏洞验证" style="whiteSpace=wrap;html=1;" vertex="1" parent="1">
          <mxGeometry x="960" y="373" width="80" height="52" as="geometry" />
        </mxCell>
        <mxCell id="V4xTXPFlkwKbt28tay-m-32" value="漏洞自动推送" style="text;html=1;align=center;verticalAlign=middle;resizable=0;points=[];autosize=1;strokeColor=none;fillColor=none;" vertex="1" parent="1">
          <mxGeometry x="630" y="610" width="100" height="30" as="geometry" />
        </mxCell>
        <mxCell id="V4xTXPFlkwKbt28tay-m-33" style="edgeStyle=orthogonalEdgeStyle;rounded=0;orthogonalLoop=1;jettySize=auto;html=1;exitX=0.5;exitY=0;exitDx=0;exitDy=0;entryX=0.5;entryY=1;entryDx=0;entryDy=0;" edge="1" parent="1" source="V4xTXPFlkwKbt28tay-m-35" target="V4xTXPFlkwKbt28tay-m-31">
          <mxGeometry relative="1" as="geometry" />
        </mxCell>
        <mxCell id="V4xTXPFlkwKbt28tay-m-35" value="漏洞修复" style="whiteSpace=wrap;html=1;" vertex="1" parent="1">
          <mxGeometry x="960" y="480" width="80" height="50" as="geometry" />
        </mxCell>
        <mxCell id="V4xTXPFlkwKbt28tay-m-36" value="对应研发&lt;br&gt;进行修复" style="text;html=1;align=center;verticalAlign=middle;resizable=0;points=[];autosize=1;strokeColor=none;fillColor=none;" vertex="1" parent="1">
          <mxGeometry x="1000" y="590" width="70" height="40" as="geometry" />
        </mxCell>
        <mxCell id="V4xTXPFlkwKbt28tay-m-37" value="未修复" style="text;html=1;align=center;verticalAlign=middle;resizable=0;points=[];autosize=1;strokeColor=none;fillColor=none;" vertex="1" parent="1">
          <mxGeometry x="1120" y="440" width="60" height="30" as="geometry" />
        </mxCell>
        <mxCell id="V4xTXPFlkwKbt28tay-m-38" value="包含了agent&lt;br&gt;的应用镜像" style="text;html=1;align=center;verticalAlign=middle;resizable=0;points=[];autosize=1;strokeColor=none;fillColor=none;" vertex="1" parent="1">
          <mxGeometry x="385" y="285" width="90" height="40" as="geometry" />
        </mxCell>
        <mxCell id="V4xTXPFlkwKbt28tay-m-39" value="JIRA" style="rounded=1;whiteSpace=wrap;html=1;" vertex="1" parent="1">
          <mxGeometry x="140" y="700" width="915" height="50" as="geometry" />
        </mxCell>
        <mxCell id="V4xTXPFlkwKbt28tay-m-40" style="edgeStyle=orthogonalEdgeStyle;rounded=0;orthogonalLoop=1;jettySize=auto;html=1;entryX=0;entryY=0.5;entryDx=0;entryDy=0;" edge="1" parent="1" source="V4xTXPFlkwKbt28tay-m-42" target="V4xTXPFlkwKbt28tay-m-9">
          <mxGeometry relative="1" as="geometry" />
        </mxCell>
        <mxCell id="V4xTXPFlkwKbt28tay-m-41" value="" style="edgeStyle=orthogonalEdgeStyle;rounded=0;orthogonalLoop=1;jettySize=auto;html=1;strokeColor=#009900;" edge="1" parent="1" source="V4xTXPFlkwKbt28tay-m-42" target="V4xTXPFlkwKbt28tay-m-43">
          <mxGeometry relative="1" as="geometry" />
        </mxCell>
        <mxCell id="V4xTXPFlkwKbt28tay-m-42" value="插入agent" style="whiteSpace=wrap;html=1;strokeColor=#009900;" vertex="1" parent="1">
          <mxGeometry x="200" y="280" width="70" height="50" as="geometry" />
        </mxCell>
        <mxCell id="V4xTXPFlkwKbt28tay-m-43" value="&lt;span style=&quot;color: rgb(0, 0, 0); font-family: Helvetica; font-size: 12px; font-style: normal; font-variant-ligatures: normal; font-variant-caps: normal; font-weight: 400; letter-spacing: normal; orphans: 2; text-align: center; text-indent: 0px; text-transform: none; widows: 2; word-spacing: 0px; -webkit-text-stroke-width: 0px; background-color: rgb(251, 251, 251); text-decoration-thickness: initial; text-decoration-style: initial; text-decoration-color: initial; float: none; display: inline !important;&quot;&gt;修改对应的配置文件中的应用启动命令，插入agent及指定tag值&lt;/span&gt;" style="text;whiteSpace=wrap;html=1;strokeColor=#009900;glass=0;rounded=1;shadow=0;" vertex="1" parent="1">
          <mxGeometry x="185" y="363" width="100" height="72" as="geometry" />
        </mxCell>
        <mxCell id="V4xTXPFlkwKbt28tay-m-48" value="" style="edgeStyle=orthogonalEdgeStyle;rounded=0;orthogonalLoop=1;jettySize=auto;html=1;entryX=0.875;entryY=0.5;entryDx=0;entryDy=0;entryPerimeter=0;" edge="1" parent="1" source="V4xTXPFlkwKbt28tay-m-44" target="V4xTXPFlkwKbt28tay-m-25">
          <mxGeometry relative="1" as="geometry" />
        </mxCell>
        <mxCell id="V4xTXPFlkwKbt28tay-m-44" value="IAST建立项目绑定Tag" style="whiteSpace=wrap;html=1;strokeColor=#00CC00;" vertex="1" parent="1">
          <mxGeometry x="815" y="507.5" width="110" height="50" as="geometry" />
        </mxCell>
        <mxCell id="V4xTXPFlkwKbt28tay-m-47" value="" style="edgeStyle=orthogonalEdgeStyle;rounded=0;orthogonalLoop=1;jettySize=auto;html=1;" edge="1" parent="1" source="V4xTXPFlkwKbt28tay-m-46" target="V4xTXPFlkwKbt28tay-m-44">
          <mxGeometry relative="1" as="geometry" />
        </mxCell>
        <mxCell id="V4xTXPFlkwKbt28tay-m-46" value="安全人员" style="shape=umlActor;verticalLabelPosition=bottom;verticalAlign=top;html=1;outlineConnect=0;" vertex="1" parent="1">
          <mxGeometry x="855" y="285" width="30" height="60" as="geometry" />
        </mxCell>
        <mxCell id="V4xTXPFlkwKbt28tay-m-51" value="" style="endArrow=classic;html=1;rounded=0;exitX=0.941;exitY=0.023;exitDx=0;exitDy=0;exitPerimeter=0;" edge="1" parent="1" source="V4xTXPFlkwKbt28tay-m-39" target="V4xTXPFlkwKbt28tay-m-35">
          <mxGeometry width="50" height="50" relative="1" as="geometry">
            <mxPoint x="950" y="635" as="sourcePoint" />
            <mxPoint x="1000" y="585" as="targetPoint" />
          </mxGeometry>
        </mxCell>
      </root>
    </mxGraphModel>
  </diagram>
</mxfile>
